<?xml version="1.0" encoding="UTF-8"?>
<svg id="M3DT" xmlns="http://www.w3.org/2000/svg" xmlns:xlink="http://www.w3.org/1999/xlink" viewBox="0 0 360 360">
  <defs>
    <style>
      .cls-1 {
        fill: url(#linear-gradient);
      }
    </style>
    <linearGradient id="linear-gradient" x1="179.98" y1="265.13" x2="179.98" y2="94.87" gradientUnits="userSpaceOnUse">
      <stop offset="0" stop-color="#ff2ae8"/>
      <stop offset="1" stop-color="#ffbe15"/>
    </linearGradient>
  </defs>
  <g id="M">
    <path class="cls-1" d="M325.8,124.45h-68.73v-22.61l7.7-6.97h78.98l-13.52,9.91v15.3l-4.43,4.38ZM308.59,124.45h-29.26l2.12,1.83.07,76.48,24.67,62.37.21-62.37-.07-76.48,2.26-1.83ZM208.53,94.87h-18.84l-8.2,6.8v117.94l27.05,18.73V94.87ZM254.86,124.45l-46.33-29.58v31.99l1.64-1.42,44.69,27v-27.99ZM254.86,163.86l-46.33,35.58v38.91l46.33-35.58v-38.91ZM254.86,135.87h-27.44v50.49h27.44v-50.49ZM178.49,121.62v-19.95l-9.3-6.8h-53.21l-10.82,6.8v22.78h70.5M169.18,162.86l-29.1-36.73,1.33-1.68h-36.25l30.43,38.41-30.43,39.9h33.59l30.43-39.9ZM178.49,219.22v-2.49l-2.96.42-53.01-37.15-17.36,22.76,47.55,35.58,25.77-19.12ZM57.11,94.87H16.21l13.3,11.31v158.95l27.38-21.13.22-149.13ZM105.16,207.92l-2-1.16v-104.9l-9.48-6.98h-18.29l.66,135.16M75.56,94.87l-9.22,30.41-9.22-30.41-1,85.13,10.22,36.73,10.22-36.73-1-85.13Z"/>
  </g>
</svg>